<svg width="202" height="40" viewBox="0 0 202 40" fill="none" xmlns="http://www.w3.org/2000/svg">
<path d="M187.272 40C187.055 40 186.838 40 186.581 39.9604C186.324 39.9604 186.087 39.9209 185.869 39.8814V37.2532C186.067 37.2927 186.284 37.3125 186.521 37.3323C186.759 37.3323 186.976 37.3323 187.193 37.3323C188.102 37.3323 188.833 37.0951 189.407 36.6406C189.999 36.1861 190.474 35.3759 190.81 34.2298L191.185 33.0639L183.874 13.3032H187.272L193.359 31.5424L192.094 29.5465H193.596L192.331 31.5424L198.398 13.3032H201.757L194.05 34.2693C193.517 35.7514 192.944 36.8975 192.351 37.7275C191.758 38.5574 191.047 39.1305 190.236 39.4664C189.446 39.8023 188.458 39.9802 187.292 39.9802L187.272 40Z" fill="#FFF6E5"/>
<path d="M176.266 33.0838V5.47803H179.448V33.064H176.266V33.0838Z" fill="#FFF6E5"/>
<path d="M169.468 33.2219C167.432 33.2219 165.97 32.8069 165.061 31.9967C164.152 31.1865 163.697 29.8231 163.697 27.9458V15.9708H160.575V13.3229H163.697V8.20483H166.997V13.3229H171.325V15.9708H166.997V27.1554C166.997 28.3212 167.215 29.1512 167.65 29.665C168.084 30.159 168.815 30.4159 169.843 30.4159C170.12 30.4159 170.357 30.4159 170.554 30.4159C170.752 30.4159 171.009 30.3764 171.305 30.3566V33.0638C171.009 33.1033 170.693 33.1626 170.396 33.2021C170.1 33.2417 169.784 33.2614 169.468 33.2614V33.2219Z" fill="#FFF6E5"/>
<path d="M140.539 33.0837V13.323H143.72V16.2871H144.016C144.51 15.2398 145.242 14.4296 146.17 13.8565C147.119 13.2637 148.305 12.9673 149.767 12.9673C152 12.9673 153.699 13.5996 154.885 14.8643C156.09 16.129 156.683 17.9272 156.683 20.2788V33.0639H153.502V21.0494C153.502 19.271 153.126 17.947 152.375 17.0973C151.624 16.2278 150.478 15.7931 148.897 15.7931C147.85 15.7931 146.941 16.0302 146.17 16.4649C145.4 16.9194 144.807 17.5518 144.372 18.3817C143.957 19.2117 143.74 20.1997 143.74 21.3656V33.0639H140.558L140.539 33.0837Z" fill="#FFF6E5"/>
<path d="M127.18 33.4199C125.303 33.4199 123.682 33.0049 122.319 32.1749C120.975 31.345 119.928 30.1791 119.197 28.6575C118.485 27.1359 118.11 25.3377 118.11 23.2628C118.11 21.2077 118.466 19.4095 119.197 17.8682C119.928 16.3268 120.955 15.1214 122.299 14.252C123.623 13.3825 125.184 12.9478 126.963 12.9478C128.741 12.9478 130.302 13.3627 131.587 14.1927C132.891 15.0226 133.879 16.1885 134.551 17.6706C135.242 19.1526 135.598 20.8718 135.598 22.8281V24.073H119.77V21.5239H133.958L132.377 23.8557V22.591C132.377 21.0299 132.14 19.7652 131.685 18.7574C131.231 17.7496 130.579 17.0185 129.769 16.5244C128.958 16.0304 128.01 15.7735 126.943 15.7735C125.876 15.7735 124.927 16.0304 124.078 16.564C123.248 17.0777 122.596 17.8484 122.102 18.8562C121.608 19.864 121.37 21.1089 121.37 22.591V23.8557C121.37 25.2587 121.608 26.4641 122.082 27.4719C122.556 28.4599 123.228 29.2306 124.117 29.7641C125.006 30.2977 126.034 30.5546 127.239 30.5546C128.129 30.5546 128.899 30.436 129.571 30.1791C130.223 29.942 130.776 29.6258 131.211 29.2503C131.646 28.8749 131.942 28.4797 132.1 28.1042L132.179 27.9461H135.361L135.321 28.0845C135.144 28.7563 134.847 29.4084 134.412 30.0408C133.978 30.6731 133.424 31.2264 132.753 31.7402C132.061 32.2342 131.251 32.6492 130.322 32.9456C129.393 33.242 128.346 33.3803 127.18 33.3803V33.4199Z" fill="#FFF6E5"/>
<path d="M103.803 33.4196C102.321 33.4196 101.056 33.143 100.049 32.5699C99.0407 31.9969 98.2701 31.1669 97.7563 30.0801C97.2623 28.9735 97.0054 27.6495 97.0054 26.1082V13.323H100.187V25.3375C100.187 27.116 100.523 28.4202 101.214 29.2896C101.906 30.1591 103.052 30.5939 104.613 30.5939C105.483 30.5939 106.253 30.4555 106.905 30.2184C107.577 29.9615 108.131 29.5861 108.585 29.1118C109.04 28.6178 109.376 28.0447 109.593 27.3531C109.83 26.6615 109.949 25.871 109.949 25.0016V13.3032H113.13V33.0639H109.949V30.1196H109.652C109.336 30.8112 108.901 31.4238 108.348 31.9178C107.795 32.4118 107.143 32.7873 106.372 33.0442C105.621 33.3011 104.752 33.4196 103.783 33.4196H103.803Z" fill="#FFF6E5"/>
<path d="M87.8955 33.0838V5.47803H91.077V33.064H87.8955V33.0838Z" fill="#FFF6E5"/>
<path d="M66.6333 33.0839V6.64404H82.679V9.60815H69.9333V18.6981H81.6317V21.6227H69.9333V33.0839H66.6333Z" fill="#FFF6E5"/>
<path fill-rule="evenodd" clip-rule="evenodd" d="M4.14975 0.1428C2.47009 0.577536 1.18564 1.62485 0.454497 3.20571C0.0395215 4.07518 0 4.31231 0 5.39915C0 6.30814 0.0988036 6.84168 0.335932 7.47403C0.652104 8.26446 1.02756 8.69919 5.90845 13.5999L11.1648 18.876L6.06654 23.994C0.592821 29.4677 0.375454 29.7444 0.0790429 31.424C-0.0988036 32.4121 0.0395214 33.5977 0.474257 34.566C0.869472 35.475 2.05511 36.6606 3.02339 37.1546C3.7743 37.5301 3.9719 37.5696 5.35515 37.5696C7.84501 37.5696 7.44979 37.866 15.3738 29.9815C19.1086 26.2665 22.3691 22.9269 22.6458 22.5712C24.1674 20.5161 24.2464 17.552 22.8632 15.4376C22.547 14.9436 19.5236 11.8214 15.3936 7.73092C9.12945 1.52605 8.35878 0.814664 7.58812 0.478732C6.5408 0.0044749 5.13779 -0.114089 4.14975 0.1428ZM26.4794 0.1428C25.3728 0.458971 24.7009 0.834425 23.9698 1.56557C22.7446 2.79074 22.1518 4.62848 22.4482 6.28838C22.7446 7.96804 22.9817 8.2447 28.4357 13.7184L33.5339 18.8364L28.4357 23.9545C22.4482 29.9815 22.5075 29.9024 22.5075 32.2342C22.5075 33.4791 22.547 33.7755 22.8829 34.4869C23.4165 35.6331 24.3057 36.5223 25.4123 37.0756C26.2818 37.5103 26.4596 37.5498 27.8033 37.5498C30.2339 37.5498 29.9177 37.787 37.3082 30.4162C40.8059 26.9383 43.8886 23.7173 44.185 23.3024C45.1335 21.8598 45.4299 20.8916 45.4299 18.9352C45.4299 16.9394 45.1532 15.8723 44.2245 14.4693C43.8886 13.9753 41.0825 11.0507 37.1699 7.15786C31.0441 1.05179 30.6291 0.676339 29.8189 0.379929C28.7123 -0.0350465 27.4279 -0.114089 26.4794 0.162561V0.1428Z" fill="#FFF6E5"/>
</svg>
