<svg width="197" height="40" viewBox="0 0 197 44" fill="none" xmlns="http://www.w3.org/2000/svg">
<path d="M62.1929 36.8949L60.3391 41.4519L22.3939 43.2869L0 32.2768L1.9097 27.5853L24.1854 38.5403L24.5524 38.7177L24.9568 38.6994L62.1929 36.8949Z" fill="#FFF6E5"/>
<path d="M20.9011 23.7009L10.7367 24.2147L2.48828 20.0431L4.39798 15.3516L20.9011 23.7009Z" fill="#FFF6E5"/>
<path d="M35.6393 12.3913L32.8774 11.1007L31.7266 6.58658L33.2257 2.89209L35.6393 12.3913Z" fill="#FFF6E5"/>
<path d="M62.8274 35.335L24.8822 37.17L2.48828 26.1599L26.7484 24.9366L4.97649 13.9265L15.5514 4.75142L37.9453 15.1498L34.213 0.469727L55.9848 10.8681L62.8274 35.335Z" fill="#FFF6E5"/>
<path d="M95.7978 22.4895H84.6009V10.8678H76.5391V40.228H84.6009V29.2179H95.8476V40.228H103.256V10.8678H95.7978V22.4895Z" fill="#FFF6E5"/>
<path d="M115.078 29.2179H128.141V22.4895H115.078V17.5962H130.007V10.8678H107.613V40.228H130.2V33.4996H115.078V29.2179Z" fill="#FFF6E5"/>
<path d="M171.066 29.2181H184.129V22.4897H171.066V17.5963H185.995V10.868H163.602V40.2282H186.188V33.4998H171.066V29.2181Z" fill="#FFF6E5"/>
<path d="M158.003 34.7231C154.893 30.4414 153.649 29.218 153.649 29.218C153.649 29.218 160.491 27.9947 160.491 20.043C160.491 10.8679 148.946 10.8679 148.946 10.8679H133.762V40.2281H141.83V29.8297H144.94C148.05 31.6647 152.411 40.2281 152.411 40.2281H161.735C161.735 40.2281 161.113 39.0048 158.003 34.7231ZM151.496 22.82C150.93 23.3705 150.153 23.713 149.294 23.713H141.83V17.5963H149.294C151.011 17.5963 152.405 18.9664 152.405 20.6547C152.405 21.4988 152.056 22.2633 151.496 22.82Z" fill="#FFF6E5"/>
<path d="M196.569 33.5H189.727V40.2284H196.569V33.5Z" fill="#FFF6E5"/>
</svg>
